<?xml version="1.0" encoding="UTF-8" standalone="no"?>
<svg
   width="460.8pt"
   height="345.6pt"
   viewBox="0 0 460.8 345.6"
   version="1.1"
   id="svg105"
   sodipodi:docname="mamba_tensorBoard_scalars.svg"
   inkscape:version="1.4 (86a8ad7, 2024-10-11)"
   xmlns:inkscape="http://www.inkscape.org/namespaces/inkscape"
   xmlns:sodipodi="http://sodipodi.sourceforge.net/DTD/sodipodi-0.dtd"
   xmlns:xlink="http://www.w3.org/1999/xlink"
   xmlns="http://www.w3.org/2000/svg"
   xmlns:svg="http://www.w3.org/2000/svg"
   xmlns:rdf="http://www.w3.org/1999/02/22-rdf-syntax-ns#"
   xmlns:cc="http://creativecommons.org/ns#"
   xmlns:dc="http://purl.org/dc/elements/1.1/">
  <sodipodi:namedview
     id="namedview105"
     pagecolor="#ffffff"
     bordercolor="#000000"
     borderopacity="0.25"
     inkscape:showpageshadow="2"
     inkscape:pageopacity="0.0"
     inkscape:pagecheckerboard="0"
     inkscape:deskcolor="#d1d1d1"
     inkscape:document-units="pt"
     inkscape:zoom="1.266276"
     inkscape:cx="241.65347"
     inkscape:cy="276.00617"
     inkscape:window-width="1656"
     inkscape:window-height="1211"
     inkscape:window-x="1848"
     inkscape:window-y="103"
     inkscape:window-maximized="0"
     inkscape:current-layer="axes_1" />
  <metadata
     id="metadata1">
    <rdf:RDF>
      <cc:Work>
        <dc:type
           rdf:resource="http://purl.org/dc/dcmitype/StillImage" />
        <dc:date>2025-05-17T17:09:50.393485</dc:date>
        <dc:format>image/svg+xml</dc:format>
        <dc:creator>
          <cc:Agent>
            <dc:title>Matplotlib v3.10.0, https://matplotlib.org/</dc:title>
          </cc:Agent>
        </dc:creator>
      </cc:Work>
    </rdf:RDF>
  </metadata>
  <defs
     id="defs1">
    <style
       type="text/css"
       id="style1">*{stroke-linejoin: round; stroke-linecap: butt}</style>
  </defs>
  <g
     id="figure_1">
    <g
       id="patch_1"
       style="fill:#666666">
      <path
         d="M 0 345.6  L 460.8 345.6  L 460.8 0  L 0 0  z "
         style="fill:#666666"
         id="path1" />
    </g>
    <g
       id="axes_1">
      <g
         id="patch_2"
         style="fill:#333333">
        <path
           d="M 47.72 303.64  L 447.646026 303.64  L 447.646026 26.88  L 47.72 26.88  z "
           style="fill:#333333"
           id="path2" />
      </g>
      <g
         id="matplotlib.axis_1">
        <g
           id="xtick_1">
          <g
             id="line2d_1">
            <path
               d="M 63.503052 303.64  L 63.503052 26.88  "
               clip-path="url(#pcbc1022ac8)"
               style="fill: none; stroke: #b0b0b0; stroke-width: 0.8; stroke-linecap: square"
               id="path3" />
          </g>
          <g
             id="line2d_2">
            <defs
               id="defs3">
              <path
                 id="mba79719cb6"
                 d="M 0 0  L 0 3.5  "
                 style="stroke: #000000; stroke-width: 0.8" />
            </defs>
            <g
               id="g3">
              <use
                 xlink:href="#mba79719cb6"
                 x="63.503052"
                 y="303.64"
                 style="stroke: #000000; stroke-width: 0.8"
                 id="use3" />
            </g>
          </g>
          <g
             id="text_1">
            <!-- 0 -->
            <g
               transform="translate(60.321802 318.238437) scale(0.1 -0.1)"
               id="g4">
              <defs
                 id="defs4">
                <path
                   id="DejaVuSans-30"
                   d="M 2034 4250  Q 1547 4250 1301 3770  Q 1056 3291 1056 2328  Q 1056 1369 1301 889  Q 1547 409 2034 409  Q 2525 409 2770 889  Q 3016 1369 3016 2328  Q 3016 3291 2770 3770  Q 2525 4250 2034 4250  z M 2034 4750  Q 2819 4750 3233 4129  Q 3647 3509 3647 2328  Q 3647 1150 3233 529  Q 2819 -91 2034 -91  Q 1250 -91 836 529  Q 422 1150 422 2328  Q 422 3509 836 4129  Q 1250 4750 2034 4750  z "
                   transform="scale(0.015625)" />
              </defs>
              <use
                 xlink:href="#DejaVuSans-30"
                 id="use4" />
            </g>
          </g>
        </g>
        <g
           id="xtick_2">
          <g
             id="line2d_3">
            <path
               d="M 116.734254 303.64  L 116.734254 26.88  "
               clip-path="url(#pcbc1022ac8)"
               style="fill: none; stroke: #b0b0b0; stroke-width: 0.8; stroke-linecap: square"
               id="path4" />
          </g>
          <g
             id="line2d_4">
            <g
               id="g5">
              <use
                 xlink:href="#mba79719cb6"
                 x="116.734254"
                 y="303.64"
                 style="stroke: #000000; stroke-width: 0.8"
                 id="use5" />
            </g>
          </g>
          <g
             id="text_2">
            <!-- 200 -->
            <g
               transform="translate(107.190504 318.238437) scale(0.1 -0.1)"
               id="g8">
              <defs
                 id="defs5">
                <path
                   id="DejaVuSans-32"
                   d="M 1228 531  L 3431 531  L 3431 0  L 469 0  L 469 531  Q 828 903 1448 1529  Q 2069 2156 2228 2338  Q 2531 2678 2651 2914  Q 2772 3150 2772 3378  Q 2772 3750 2511 3984  Q 2250 4219 1831 4219  Q 1534 4219 1204 4116  Q 875 4013 500 3803  L 500 4441  Q 881 4594 1212 4672  Q 1544 4750 1819 4750  Q 2544 4750 2975 4387  Q 3406 4025 3406 3419  Q 3406 3131 3298 2873  Q 3191 2616 2906 2266  Q 2828 2175 2409 1742  Q 1991 1309 1228 531  z "
                   transform="scale(0.015625)" />
              </defs>
              <use
                 xlink:href="#DejaVuSans-32"
                 id="use6" />
              <use
                 xlink:href="#DejaVuSans-30"
                 transform="translate(63.623047 0)"
                 id="use7" />
              <use
                 xlink:href="#DejaVuSans-30"
                 transform="translate(127.246094 0)"
                 id="use8" />
            </g>
          </g>
        </g>
        <g
           id="xtick_3">
          <g
             id="line2d_5">
            <path
               d="M 169.965457 303.64  L 169.965457 26.88  "
               clip-path="url(#pcbc1022ac8)"
               style="fill: none; stroke: #b0b0b0; stroke-width: 0.8; stroke-linecap: square"
               id="path8" />
          </g>
          <g
             id="line2d_6">
            <g
               id="g9">
              <use
                 xlink:href="#mba79719cb6"
                 x="169.965457"
                 y="303.64"
                 style="stroke: #000000; stroke-width: 0.8"
                 id="use9" />
            </g>
          </g>
          <g
             id="text_3">
            <!-- 400 -->
            <g
               transform="translate(160.421707 318.238437) scale(0.1 -0.1)"
               id="g12">
              <defs
                 id="defs9">
                <path
                   id="DejaVuSans-34"
                   d="M 2419 4116  L 825 1625  L 2419 1625  L 2419 4116  z M 2253 4666  L 3047 4666  L 3047 1625  L 3713 1625  L 3713 1100  L 3047 1100  L 3047 0  L 2419 0  L 2419 1100  L 313 1100  L 313 1709  L 2253 4666  z "
                   transform="scale(0.015625)" />
              </defs>
              <use
                 xlink:href="#DejaVuSans-34"
                 id="use10" />
              <use
                 xlink:href="#DejaVuSans-30"
                 transform="translate(63.623047 0)"
                 id="use11" />
              <use
                 xlink:href="#DejaVuSans-30"
                 transform="translate(127.246094 0)"
                 id="use12" />
            </g>
          </g>
        </g>
        <g
           id="xtick_4">
          <g
             id="line2d_7">
            <path
               d="M 223.19666 303.64  L 223.19666 26.88  "
               clip-path="url(#pcbc1022ac8)"
               style="fill: none; stroke: #b0b0b0; stroke-width: 0.8; stroke-linecap: square"
               id="path12" />
          </g>
          <g
             id="line2d_8">
            <g
               id="g13">
              <use
                 xlink:href="#mba79719cb6"
                 x="223.19666"
                 y="303.64"
                 style="stroke: #000000; stroke-width: 0.8"
                 id="use13" />
            </g>
          </g>
          <g
             id="text_4">
            <!-- 600 -->
            <g
               transform="translate(213.65291 318.238437) scale(0.1 -0.1)"
               id="g16">
              <defs
                 id="defs13">
                <path
                   id="DejaVuSans-36"
                   d="M 2113 2584  Q 1688 2584 1439 2293  Q 1191 2003 1191 1497  Q 1191 994 1439 701  Q 1688 409 2113 409  Q 2538 409 2786 701  Q 3034 994 3034 1497  Q 3034 2003 2786 2293  Q 2538 2584 2113 2584  z M 3366 4563  L 3366 3988  Q 3128 4100 2886 4159  Q 2644 4219 2406 4219  Q 1781 4219 1451 3797  Q 1122 3375 1075 2522  Q 1259 2794 1537 2939  Q 1816 3084 2150 3084  Q 2853 3084 3261 2657  Q 3669 2231 3669 1497  Q 3669 778 3244 343  Q 2819 -91 2113 -91  Q 1303 -91 875 529  Q 447 1150 447 2328  Q 447 3434 972 4092  Q 1497 4750 2381 4750  Q 2619 4750 2861 4703  Q 3103 4656 3366 4563  z "
                   transform="scale(0.015625)" />
              </defs>
              <use
                 xlink:href="#DejaVuSans-36"
                 id="use14" />
              <use
                 xlink:href="#DejaVuSans-30"
                 transform="translate(63.623047 0)"
                 id="use15" />
              <use
                 xlink:href="#DejaVuSans-30"
                 transform="translate(127.246094 0)"
                 id="use16" />
            </g>
          </g>
        </g>
        <g
           id="xtick_5">
          <g
             id="line2d_9">
            <path
               d="M 276.427863 303.64  L 276.427863 26.88  "
               clip-path="url(#pcbc1022ac8)"
               style="fill: none; stroke: #b0b0b0; stroke-width: 0.8; stroke-linecap: square"
               id="path16" />
          </g>
          <g
             id="line2d_10">
            <g
               id="g17">
              <use
                 xlink:href="#mba79719cb6"
                 x="276.427863"
                 y="303.64"
                 style="stroke: #000000; stroke-width: 0.8"
                 id="use17" />
            </g>
          </g>
          <g
             id="text_5">
            <!-- 800 -->
            <g
               transform="translate(266.884113 318.238437) scale(0.1 -0.1)"
               id="g20">
              <defs
                 id="defs17">
                <path
                   id="DejaVuSans-38"
                   d="M 2034 2216  Q 1584 2216 1326 1975  Q 1069 1734 1069 1313  Q 1069 891 1326 650  Q 1584 409 2034 409  Q 2484 409 2743 651  Q 3003 894 3003 1313  Q 3003 1734 2745 1975  Q 2488 2216 2034 2216  z M 1403 2484  Q 997 2584 770 2862  Q 544 3141 544 3541  Q 544 4100 942 4425  Q 1341 4750 2034 4750  Q 2731 4750 3128 4425  Q 3525 4100 3525 3541  Q 3525 3141 3298 2862  Q 3072 2584 2669 2484  Q 3125 2378 3379 2068  Q 3634 1759 3634 1313  Q 3634 634 3220 271  Q 2806 -91 2034 -91  Q 1263 -91 848 271  Q 434 634 434 1313  Q 434 1759 690 2068  Q 947 2378 1403 2484  z M 1172 3481  Q 1172 3119 1398 2916  Q 1625 2713 2034 2713  Q 2441 2713 2670 2916  Q 2900 3119 2900 3481  Q 2900 3844 2670 4047  Q 2441 4250 2034 4250  Q 1625 4250 1398 4047  Q 1172 3844 1172 3481  z "
                   transform="scale(0.015625)" />
              </defs>
              <use
                 xlink:href="#DejaVuSans-38"
                 id="use18" />
              <use
                 xlink:href="#DejaVuSans-30"
                 transform="translate(63.623047 0)"
                 id="use19" />
              <use
                 xlink:href="#DejaVuSans-30"
                 transform="translate(127.246094 0)"
                 id="use20" />
            </g>
          </g>
        </g>
        <g
           id="xtick_6">
          <g
             id="line2d_11">
            <path
               d="M 329.659065 303.64  L 329.659065 26.88  "
               clip-path="url(#pcbc1022ac8)"
               style="fill: none; stroke: #b0b0b0; stroke-width: 0.8; stroke-linecap: square"
               id="path20" />
          </g>
          <g
             id="line2d_12">
            <g
               id="g21">
              <use
                 xlink:href="#mba79719cb6"
                 x="329.659065"
                 y="303.64"
                 style="stroke: #000000; stroke-width: 0.8"
                 id="use21" />
            </g>
          </g>
          <g
             id="text_6">
            <!-- 1000 -->
            <g
               transform="translate(316.934065 318.238437) scale(0.1 -0.1)"
               id="g25">
              <defs
                 id="defs21">
                <path
                   id="DejaVuSans-31"
                   d="M 794 531  L 1825 531  L 1825 4091  L 703 3866  L 703 4441  L 1819 4666  L 2450 4666  L 2450 531  L 3481 531  L 3481 0  L 794 0  L 794 531  z "
                   transform="scale(0.015625)" />
              </defs>
              <use
                 xlink:href="#DejaVuSans-31"
                 id="use22" />
              <use
                 xlink:href="#DejaVuSans-30"
                 transform="translate(63.623047 0)"
                 id="use23" />
              <use
                 xlink:href="#DejaVuSans-30"
                 transform="translate(127.246094 0)"
                 id="use24" />
              <use
                 xlink:href="#DejaVuSans-30"
                 transform="translate(190.869141 0)"
                 id="use25" />
            </g>
          </g>
        </g>
        <g
           id="xtick_7">
          <g
             id="line2d_13">
            <path
               d="M 382.890268 303.64  L 382.890268 26.88  "
               clip-path="url(#pcbc1022ac8)"
               style="fill: none; stroke: #b0b0b0; stroke-width: 0.8; stroke-linecap: square"
               id="path25" />
          </g>
          <g
             id="line2d_14">
            <g
               id="g26">
              <use
                 xlink:href="#mba79719cb6"
                 x="382.890268"
                 y="303.64"
                 style="stroke: #000000; stroke-width: 0.8"
                 id="use26" />
            </g>
          </g>
          <g
             id="text_7">
            <!-- 1200 -->
            <g
               transform="translate(370.165268 318.238437) scale(0.1 -0.1)"
               id="g30">
              <use
                 xlink:href="#DejaVuSans-31"
                 id="use27" />
              <use
                 xlink:href="#DejaVuSans-32"
                 transform="translate(63.623047 0)"
                 id="use28" />
              <use
                 xlink:href="#DejaVuSans-30"
                 transform="translate(127.246094 0)"
                 id="use29" />
              <use
                 xlink:href="#DejaVuSans-30"
                 transform="translate(190.869141 0)"
                 id="use30" />
            </g>
          </g>
        </g>
        <g
           id="xtick_8">
          <g
             id="line2d_15">
            <path
               d="M 436.121471 303.64  L 436.121471 26.88  "
               clip-path="url(#pcbc1022ac8)"
               style="fill: none; stroke: #b0b0b0; stroke-width: 0.8; stroke-linecap: square"
               id="path30" />
          </g>
          <g
             id="line2d_16">
            <g
               id="g31">
              <use
                 xlink:href="#mba79719cb6"
                 x="436.121471"
                 y="303.64"
                 style="stroke: #000000; stroke-width: 0.8"
                 id="use31" />
            </g>
          </g>
          <g
             id="text_8">
            <!-- 1400 -->
            <g
               transform="translate(423.396471 318.238437) scale(0.1 -0.1)"
               id="g35">
              <use
                 xlink:href="#DejaVuSans-31"
                 id="use32" />
              <use
                 xlink:href="#DejaVuSans-34"
                 transform="translate(63.623047 0)"
                 id="use33" />
              <use
                 xlink:href="#DejaVuSans-30"
                 transform="translate(127.246094 0)"
                 id="use34" />
              <use
                 xlink:href="#DejaVuSans-30"
                 transform="translate(190.869141 0)"
                 id="use35" />
            </g>
          </g>
        </g>
        <g
           id="text_9">
          <!-- Step -->
          <g
             transform="translate(236.297857 331.916562) scale(0.1 -0.1)"
             id="g39">
            <defs
               id="defs35">
              <path
                 id="DejaVuSans-53"
                 d="M 3425 4513  L 3425 3897  Q 3066 4069 2747 4153  Q 2428 4238 2131 4238  Q 1616 4238 1336 4038  Q 1056 3838 1056 3469  Q 1056 3159 1242 3001  Q 1428 2844 1947 2747  L 2328 2669  Q 3034 2534 3370 2195  Q 3706 1856 3706 1288  Q 3706 609 3251 259  Q 2797 -91 1919 -91  Q 1588 -91 1214 -16  Q 841 59 441 206  L 441 856  Q 825 641 1194 531  Q 1563 422 1919 422  Q 2459 422 2753 634  Q 3047 847 3047 1241  Q 3047 1584 2836 1778  Q 2625 1972 2144 2069  L 1759 2144  Q 1053 2284 737 2584  Q 422 2884 422 3419  Q 422 4038 858 4394  Q 1294 4750 2059 4750  Q 2388 4750 2728 4690  Q 3069 4631 3425 4513  z "
                 transform="scale(0.015625)" />
              <path
                 id="DejaVuSans-74"
                 d="M 1172 4494  L 1172 3500  L 2356 3500  L 2356 3053  L 1172 3053  L 1172 1153  Q 1172 725 1289 603  Q 1406 481 1766 481  L 2356 481  L 2356 0  L 1766 0  Q 1100 0 847 248  Q 594 497 594 1153  L 594 3053  L 172 3053  L 172 3500  L 594 3500  L 594 4494  L 1172 4494  z "
                 transform="scale(0.015625)" />
              <path
                 id="DejaVuSans-65"
                 d="M 3597 1894  L 3597 1613  L 953 1613  Q 991 1019 1311 708  Q 1631 397 2203 397  Q 2534 397 2845 478  Q 3156 559 3463 722  L 3463 178  Q 3153 47 2828 -22  Q 2503 -91 2169 -91  Q 1331 -91 842 396  Q 353 884 353 1716  Q 353 2575 817 3079  Q 1281 3584 2069 3584  Q 2775 3584 3186 3129  Q 3597 2675 3597 1894  z M 3022 2063  Q 3016 2534 2758 2815  Q 2500 3097 2075 3097  Q 1594 3097 1305 2825  Q 1016 2553 972 2059  L 3022 2063  z "
                 transform="scale(0.015625)" />
              <path
                 id="DejaVuSans-70"
                 d="M 1159 525  L 1159 -1331  L 581 -1331  L 581 3500  L 1159 3500  L 1159 2969  Q 1341 3281 1617 3432  Q 1894 3584 2278 3584  Q 2916 3584 3314 3078  Q 3713 2572 3713 1747  Q 3713 922 3314 415  Q 2916 -91 2278 -91  Q 1894 -91 1617 61  Q 1341 213 1159 525  z M 3116 1747  Q 3116 2381 2855 2742  Q 2594 3103 2138 3103  Q 1681 3103 1420 2742  Q 1159 2381 1159 1747  Q 1159 1113 1420 752  Q 1681 391 2138 391  Q 2594 391 2855 752  Q 3116 1113 3116 1747  z "
                 transform="scale(0.015625)" />
            </defs>
            <use
               xlink:href="#DejaVuSans-53"
               id="use36" />
            <use
               xlink:href="#DejaVuSans-74"
               transform="translate(63.476562 0)"
               id="use37" />
            <use
               xlink:href="#DejaVuSans-65"
               transform="translate(102.685547 0)"
               id="use38" />
            <use
               xlink:href="#DejaVuSans-70"
               transform="translate(164.208984 0)"
               id="use39" />
          </g>
        </g>
      </g>
      <g
         id="matplotlib.axis_2">
        <g
           id="ytick_1">
          <g
             id="line2d_17">
            <path
               d="M 47.72 259.664914  L 447.646026 259.664914  "
               clip-path="url(#pcbc1022ac8)"
               style="fill: none; stroke: #b0b0b0; stroke-width: 0.8; stroke-linecap: square"
               id="path39" />
          </g>
          <g
             id="line2d_18">
            <defs
               id="defs39">
              <path
                 id="m6092a150bd"
                 d="M 0 0  L -3.5 0  "
                 style="stroke: #000000; stroke-width: 0.8" />
            </defs>
            <g
               id="g40">
              <use
                 xlink:href="#m6092a150bd"
                 x="47.72"
                 y="259.664914"
                 style="stroke: #000000; stroke-width: 0.8"
                 id="use40" />
            </g>
          </g>
          <g
             id="text_10">
            <!-- 0.2 -->
            <g
               transform="translate(24.816875 263.464133) scale(0.1 -0.1)"
               id="g43">
              <defs
                 id="defs40">
                <path
                   id="DejaVuSans-2e"
                   d="M 684 794  L 1344 794  L 1344 0  L 684 0  L 684 794  z "
                   transform="scale(0.015625)" />
              </defs>
              <use
                 xlink:href="#DejaVuSans-30"
                 id="use41" />
              <use
                 xlink:href="#DejaVuSans-2e"
                 transform="translate(63.623047 0)"
                 id="use42" />
              <use
                 xlink:href="#DejaVuSans-32"
                 transform="translate(95.410156 0)"
                 id="use43" />
            </g>
          </g>
        </g>
        <g
           id="ytick_2">
          <g
             id="line2d_19">
            <path
               d="M 47.72 203.206738  L 447.646026 203.206738  "
               clip-path="url(#pcbc1022ac8)"
               style="fill: none; stroke: #b0b0b0; stroke-width: 0.8; stroke-linecap: square"
               id="path43" />
          </g>
          <g
             id="line2d_20">
            <g
               id="g44">
              <use
                 xlink:href="#m6092a150bd"
                 x="47.72"
                 y="203.206738"
                 style="stroke: #000000; stroke-width: 0.8"
                 id="use44" />
            </g>
          </g>
          <g
             id="text_11">
            <!-- 0.4 -->
            <g
               transform="translate(24.816875 207.005957) scale(0.1 -0.1)"
               id="g47">
              <use
                 xlink:href="#DejaVuSans-30"
                 id="use45" />
              <use
                 xlink:href="#DejaVuSans-2e"
                 transform="translate(63.623047 0)"
                 id="use46" />
              <use
                 xlink:href="#DejaVuSans-34"
                 transform="translate(95.410156 0)"
                 id="use47" />
            </g>
          </g>
        </g>
        <g
           id="ytick_3">
          <g
             id="line2d_21">
            <path
               d="M 47.72 146.748561  L 447.646026 146.748561  "
               clip-path="url(#pcbc1022ac8)"
               style="fill: none; stroke: #b0b0b0; stroke-width: 0.8; stroke-linecap: square"
               id="path47" />
          </g>
          <g
             id="line2d_22">
            <g
               id="g48">
              <use
                 xlink:href="#m6092a150bd"
                 x="47.72"
                 y="146.748561"
                 style="stroke: #000000; stroke-width: 0.8"
                 id="use48" />
            </g>
          </g>
          <g
             id="text_12">
            <!-- 0.6 -->
            <g
               transform="translate(24.816875 150.54778) scale(0.1 -0.1)"
               id="g51">
              <use
                 xlink:href="#DejaVuSans-30"
                 id="use49" />
              <use
                 xlink:href="#DejaVuSans-2e"
                 transform="translate(63.623047 0)"
                 id="use50" />
              <use
                 xlink:href="#DejaVuSans-36"
                 transform="translate(95.410156 0)"
                 id="use51" />
            </g>
          </g>
        </g>
        <g
           id="ytick_4">
          <g
             id="line2d_23">
            <path
               d="M 47.72 90.290385  L 447.646026 90.290385  "
               clip-path="url(#pcbc1022ac8)"
               style="fill: none; stroke: #b0b0b0; stroke-width: 0.8; stroke-linecap: square"
               id="path51" />
          </g>
          <g
             id="line2d_24">
            <g
               id="g52">
              <use
                 xlink:href="#m6092a150bd"
                 x="47.72"
                 y="90.290385"
                 style="stroke: #000000; stroke-width: 0.8"
                 id="use52" />
            </g>
          </g>
          <g
             id="text_13">
            <!-- 0.8 -->
            <g
               transform="translate(24.816875 94.089604) scale(0.1 -0.1)"
               id="g55">
              <use
                 xlink:href="#DejaVuSans-30"
                 id="use53" />
              <use
                 xlink:href="#DejaVuSans-2e"
                 transform="translate(63.623047 0)"
                 id="use54" />
              <use
                 xlink:href="#DejaVuSans-38"
                 transform="translate(95.410156 0)"
                 id="use55" />
            </g>
          </g>
        </g>
        <g
           id="ytick_5">
          <g
             id="line2d_25">
            <path
               d="M 47.72 33.832208  L 447.646026 33.832208  "
               clip-path="url(#pcbc1022ac8)"
               style="fill: none; stroke: #b0b0b0; stroke-width: 0.8; stroke-linecap: square"
               id="path55" />
          </g>
          <g
             id="line2d_26">
            <g
               id="g56">
              <use
                 xlink:href="#m6092a150bd"
                 x="47.72"
                 y="33.832208"
                 style="stroke: #000000; stroke-width: 0.8"
                 id="use56" />
            </g>
          </g>
          <g
             id="text_14">
            <!-- 1.0 -->
            <g
               transform="translate(24.816875 37.631427) scale(0.1 -0.1)"
               id="g59">
              <use
                 xlink:href="#DejaVuSans-31"
                 id="use57" />
              <use
                 xlink:href="#DejaVuSans-2e"
                 transform="translate(63.623047 0)"
                 id="use58" />
              <use
                 xlink:href="#DejaVuSans-30"
                 transform="translate(95.410156 0)"
                 id="use59" />
            </g>
          </g>
        </g>
        <g
           id="text_15">
          <!-- Value -->
          <g
             transform="translate(18.737188 178.99125) rotate(-90) scale(0.1 -0.1)"
             id="g64">
            <defs
               id="defs59">
              <path
                 id="DejaVuSans-56"
                 d="M 1831 0  L 50 4666  L 709 4666  L 2188 738  L 3669 4666  L 4325 4666  L 2547 0  L 1831 0  z "
                 transform="scale(0.015625)" />
              <path
                 id="DejaVuSans-61"
                 d="M 2194 1759  Q 1497 1759 1228 1600  Q 959 1441 959 1056  Q 959 750 1161 570  Q 1363 391 1709 391  Q 2188 391 2477 730  Q 2766 1069 2766 1631  L 2766 1759  L 2194 1759  z M 3341 1997  L 3341 0  L 2766 0  L 2766 531  Q 2569 213 2275 61  Q 1981 -91 1556 -91  Q 1019 -91 701 211  Q 384 513 384 1019  Q 384 1609 779 1909  Q 1175 2209 1959 2209  L 2766 2209  L 2766 2266  Q 2766 2663 2505 2880  Q 2244 3097 1772 3097  Q 1472 3097 1187 3025  Q 903 2953 641 2809  L 641 3341  Q 956 3463 1253 3523  Q 1550 3584 1831 3584  Q 2591 3584 2966 3190  Q 3341 2797 3341 1997  z "
                 transform="scale(0.015625)" />
              <path
                 id="DejaVuSans-6c"
                 d="M 603 4863  L 1178 4863  L 1178 0  L 603 0  L 603 4863  z "
                 transform="scale(0.015625)" />
              <path
                 id="DejaVuSans-75"
                 d="M 544 1381  L 544 3500  L 1119 3500  L 1119 1403  Q 1119 906 1312 657  Q 1506 409 1894 409  Q 2359 409 2629 706  Q 2900 1003 2900 1516  L 2900 3500  L 3475 3500  L 3475 0  L 2900 0  L 2900 538  Q 2691 219 2414 64  Q 2138 -91 1772 -91  Q 1169 -91 856 284  Q 544 659 544 1381  z M 1991 3584  L 1991 3584  z "
                 transform="scale(0.015625)" />
            </defs>
            <use
               xlink:href="#DejaVuSans-56"
               id="use60" />
            <use
               xlink:href="#DejaVuSans-61"
               transform="translate(60.658203 0)"
               id="use61" />
            <use
               xlink:href="#DejaVuSans-6c"
               transform="translate(121.9375 0)"
               id="use62" />
            <use
               xlink:href="#DejaVuSans-75"
               transform="translate(149.720703 0)"
               id="use63" />
            <use
               xlink:href="#DejaVuSans-65"
               transform="translate(213.099609 0)"
               id="use64" />
          </g>
        </g>
      </g>
      <g
         id="line2d_27">
        <path
           d="M 65.898456 39.46  L 68.560016 64.93997  L 71.221576 181.360619  L 73.883136 199.176878  L 76.544696 211.079062  L 79.206256 204.145122  L 81.867817 224.461643  L 84.529377 266.673767  L 87.190937 276.85719  L 89.852497 244.592719  L 92.514057 181.708031  L 95.175617 205.42413  L 97.837177 237.007197  L 100.498738 233.256194  L 103.160298 247.953543  L 105.821858 200.906786  L 108.483418 281.069464  L 111.144978 273.268203  L 113.806538 277.015446  L 116.468098 256.704919  L 119.129658 275.12242  L 121.791219 259.722046  L 124.452779 255.689723  L 127.114339 261.45295  L 129.775899 268.065563  L 132.437459 229.234118  L 135.099019 251.977625  L 137.760579 265.28136  L 143.0837 259.574071  L 145.74526 276.444326  L 148.40682 242.569781  L 151.06838 255.341642  L 153.72994 277.756212  L 156.3915 245.034717  L 159.053061 254.985553  L 161.714621 267.829972  L 164.376181 283.87298  L 167.037741 269.613911  L 169.699301 212.242839  L 172.360861 229.2938  L 175.022421 264.041582  L 177.683982 260.556965  L 180.345542 284.339479  L 183.007102 261.096827  L 185.668662 255.092914  L 188.330222 253.432998  L 190.991782 278.938026  L 193.653342 242.462339  L 196.314902 252.847135  L 198.976463 262.419418  L 201.638023 269.096129  L 204.299583 259.281541  L 206.961143 271.245291  L 209.622703 268.088093  L 212.284263 269.105922  L 214.945823 277.34379  L 217.607384 268.679639  L 220.268944 287.785196  L 222.930504 251.114051  L 225.592064 257.511664  L 228.253624 260.182691  L 230.915184 267.807244  L 233.576744 265.346376  L 236.238305 269.778657  L 238.899865 266.195054  L 241.561425 253.113248  L 244.222985 254.155399  L 246.884545 228.472715  L 249.546105 269.906231  L 252.207665 283.088458  L 254.869225 286.718351  L 257.530786 285.297654  L 260.192346 282.920275  L 262.853906 270.559759  L 265.515466 268.695228  L 268.177026 266.441583  L 270.838586 261.572653  L 273.500146 254.253809  L 276.161707 257.888743  L 278.823267 251.25236  L 281.484827 250.405309  L 284.146387 259.119983  L 286.807947 266.008696  L 289.469507 269.687861  L 292.131067 275.129424  L 294.792628 261.355625  L 297.454188 284.564112  L 300.115748 280.797341  L 302.777308 268.451157  L 305.438868 268.686298  L 308.100428 259.119323  L 310.761988 286.746734  L 313.423549 279.027144  L 316.085109 269.470656  L 318.746669 268.528282  L 321.408229 289.175682  L 324.069789 282.555304  L 326.731349 273.011037  L 329.392909 264.866578  L 332.054469 266.370758  L 334.71603 261.436587  L 337.37759 260.227915  L 340.03915 269.499462  L 345.36227 264.235495  L 348.02383 282.021159  L 350.68539 270.033001  L 353.346951 285.515244  L 356.008511 290.307489  L 358.670071 282.000614  L 361.331631 255.565245  L 363.993191 257.468804  L 366.654751 268.911461  L 369.316311 266.889445  L 371.977872 272.009306  L 374.639432 289.01486  L 377.300992 244.24121  L 379.962552 260.735458  L 382.624112 265.778261  L 385.285672 267.406772  L 387.947232 267.900056  L 390.608792 271.954016  L 393.270353 262.170413  L 395.931913 289.974998  L 398.593473 284.976615  L 401.255033 287.805164  L 403.916593 282.350291  L 406.578153 271.670434  L 409.239713 262.448674  L 411.901274 264.137897  L 414.562834 284.724158  L 417.224394 268.858578  L 419.885954 203.183584  L 422.547514 265.740639  L 425.209074 291.06  L 427.870634 245.561177  L 427.870634 245.561177  "
           clip-path="url(#pcbc1022ac8)"
           style="fill: none; stroke: #1f77b4; stroke-width: 1.5; stroke-linecap: square"
           id="path64" />
      </g>
      <g
         id="line2d_28">
        <path
           d="M 74.681604 199.226515  L 86.126313 244.331043  L 97.571021 252.755223  L 109.01573 258.320045  L 120.460439 262.14456  L 131.905147 252.138051  L 143.349856 257.601358  L 154.794564 264.405693  L 166.239273 267.053257  L 177.683982 265.26946  L 189.12869 267.280355  L 200.573399 266.978235  L 212.018107 255.100082  L 223.462816 259.573835  L 234.907524 260.400859  L 246.352233 244.040452  L 257.796942 268.115313  L 269.24165 262.885158  L 280.686359 255.713717  L 292.131067 269.576999  L 303.575776 271.014819  L 315.020485 272.55928  L 326.465193 272.265564  L 337.909902 268.652226  L 349.35461 269.614929  L 360.799319 261.497303  L 372.244028 271.780748  L 383.688736 263.43922  L 395.133445 267.633829  L 406.578153 270.374797  L 418.022862 262.0493  L 429.46757 251.085586  "
           clip-path="url(#pcbc1022ac8)"
           style="fill: none; stroke: #ff7f0e; stroke-width: 1.5; stroke-linecap: square"
           id="path65" />
      </g>
      <g
         id="patch_3">
        <path
           d="M 47.72 303.64  L 47.72 26.88  "
           style="fill: none; stroke: #000000; stroke-width: 0.8; stroke-linejoin: miter; stroke-linecap: square"
           id="path66" />
      </g>
      <g
         id="patch_4">
        <path
           d="M 447.646026 303.64  L 447.646026 26.88  "
           style="fill: none; stroke: #000000; stroke-width: 0.8; stroke-linejoin: miter; stroke-linecap: square"
           id="path67" />
      </g>
      <g
         id="patch_5">
        <path
           d="M 47.72 303.64  L 447.646026 303.64  "
           style="fill: none; stroke: #000000; stroke-width: 0.8; stroke-linejoin: miter; stroke-linecap: square"
           id="path68" />
      </g>
      <g
         id="patch_6">
        <path
           d="M 47.72 26.88  L 447.646026 26.88  "
           style="fill: none; stroke: #000000; stroke-width: 0.8; stroke-linejoin: miter; stroke-linecap: square"
           id="path69" />
      </g>
      <g
         id="text_16">
        <!-- TensorBoard Scalars -->
        <g
           transform="translate(187.017388 20.88) scale(0.12 -0.12)"
           id="g87">
          <defs
             id="defs69">
            <path
               id="DejaVuSans-54"
               d="M -19 4666  L 3928 4666  L 3928 4134  L 2272 4134  L 2272 0  L 1638 0  L 1638 4134  L -19 4134  L -19 4666  z "
               transform="scale(0.015625)" />
            <path
               id="DejaVuSans-6e"
               d="M 3513 2113  L 3513 0  L 2938 0  L 2938 2094  Q 2938 2591 2744 2837  Q 2550 3084 2163 3084  Q 1697 3084 1428 2787  Q 1159 2491 1159 1978  L 1159 0  L 581 0  L 581 3500  L 1159 3500  L 1159 2956  Q 1366 3272 1645 3428  Q 1925 3584 2291 3584  Q 2894 3584 3203 3211  Q 3513 2838 3513 2113  z "
               transform="scale(0.015625)" />
            <path
               id="DejaVuSans-73"
               d="M 2834 3397  L 2834 2853  Q 2591 2978 2328 3040  Q 2066 3103 1784 3103  Q 1356 3103 1142 2972  Q 928 2841 928 2578  Q 928 2378 1081 2264  Q 1234 2150 1697 2047  L 1894 2003  Q 2506 1872 2764 1633  Q 3022 1394 3022 966  Q 3022 478 2636 193  Q 2250 -91 1575 -91  Q 1294 -91 989 -36  Q 684 19 347 128  L 347 722  Q 666 556 975 473  Q 1284 391 1588 391  Q 1994 391 2212 530  Q 2431 669 2431 922  Q 2431 1156 2273 1281  Q 2116 1406 1581 1522  L 1381 1569  Q 847 1681 609 1914  Q 372 2147 372 2553  Q 372 3047 722 3315  Q 1072 3584 1716 3584  Q 2034 3584 2315 3537  Q 2597 3491 2834 3397  z "
               transform="scale(0.015625)" />
            <path
               id="DejaVuSans-6f"
               d="M 1959 3097  Q 1497 3097 1228 2736  Q 959 2375 959 1747  Q 959 1119 1226 758  Q 1494 397 1959 397  Q 2419 397 2687 759  Q 2956 1122 2956 1747  Q 2956 2369 2687 2733  Q 2419 3097 1959 3097  z M 1959 3584  Q 2709 3584 3137 3096  Q 3566 2609 3566 1747  Q 3566 888 3137 398  Q 2709 -91 1959 -91  Q 1206 -91 779 398  Q 353 888 353 1747  Q 353 2609 779 3096  Q 1206 3584 1959 3584  z "
               transform="scale(0.015625)" />
            <path
               id="DejaVuSans-72"
               d="M 2631 2963  Q 2534 3019 2420 3045  Q 2306 3072 2169 3072  Q 1681 3072 1420 2755  Q 1159 2438 1159 1844  L 1159 0  L 581 0  L 581 3500  L 1159 3500  L 1159 2956  Q 1341 3275 1631 3429  Q 1922 3584 2338 3584  Q 2397 3584 2469 3576  Q 2541 3569 2628 3553  L 2631 2963  z "
               transform="scale(0.015625)" />
            <path
               id="DejaVuSans-42"
               d="M 1259 2228  L 1259 519  L 2272 519  Q 2781 519 3026 730  Q 3272 941 3272 1375  Q 3272 1813 3026 2020  Q 2781 2228 2272 2228  L 1259 2228  z M 1259 4147  L 1259 2741  L 2194 2741  Q 2656 2741 2882 2914  Q 3109 3088 3109 3444  Q 3109 3797 2882 3972  Q 2656 4147 2194 4147  L 1259 4147  z M 628 4666  L 2241 4666  Q 2963 4666 3353 4366  Q 3744 4066 3744 3513  Q 3744 3084 3544 2831  Q 3344 2578 2956 2516  Q 3422 2416 3680 2098  Q 3938 1781 3938 1306  Q 3938 681 3513 340  Q 3088 0 2303 0  L 628 0  L 628 4666  z "
               transform="scale(0.015625)" />
            <path
               id="DejaVuSans-64"
               d="M 2906 2969  L 2906 4863  L 3481 4863  L 3481 0  L 2906 0  L 2906 525  Q 2725 213 2448 61  Q 2172 -91 1784 -91  Q 1150 -91 751 415  Q 353 922 353 1747  Q 353 2572 751 3078  Q 1150 3584 1784 3584  Q 2172 3584 2448 3432  Q 2725 3281 2906 2969  z M 947 1747  Q 947 1113 1208 752  Q 1469 391 1925 391  Q 2381 391 2643 752  Q 2906 1113 2906 1747  Q 2906 2381 2643 2742  Q 2381 3103 1925 3103  Q 1469 3103 1208 2742  Q 947 2381 947 1747  z "
               transform="scale(0.015625)" />
            <path
               id="DejaVuSans-20"
               transform="scale(0.015625)" />
            <path
               id="DejaVuSans-63"
               d="M 3122 3366  L 3122 2828  Q 2878 2963 2633 3030  Q 2388 3097 2138 3097  Q 1578 3097 1268 2742  Q 959 2388 959 1747  Q 959 1106 1268 751  Q 1578 397 2138 397  Q 2388 397 2633 464  Q 2878 531 3122 666  L 3122 134  Q 2881 22 2623 -34  Q 2366 -91 2075 -91  Q 1284 -91 818 406  Q 353 903 353 1747  Q 353 2603 823 3093  Q 1294 3584 2113 3584  Q 2378 3584 2631 3529  Q 2884 3475 3122 3366  z "
               transform="scale(0.015625)" />
          </defs>
          <use
             xlink:href="#DejaVuSans-54"
             id="use69" />
          <use
             xlink:href="#DejaVuSans-65"
             transform="translate(44.083984 0)"
             id="use70" />
          <use
             xlink:href="#DejaVuSans-6e"
             transform="translate(105.607422 0)"
             id="use71" />
          <use
             xlink:href="#DejaVuSans-73"
             transform="translate(168.986328 0)"
             id="use72" />
          <use
             xlink:href="#DejaVuSans-6f"
             transform="translate(221.085938 0)"
             id="use73" />
          <use
             xlink:href="#DejaVuSans-72"
             transform="translate(282.267578 0)"
             id="use74" />
          <use
             xlink:href="#DejaVuSans-42"
             transform="translate(323.380859 0)"
             id="use75" />
          <use
             xlink:href="#DejaVuSans-6f"
             transform="translate(391.984375 0)"
             id="use76" />
          <use
             xlink:href="#DejaVuSans-61"
             transform="translate(453.166016 0)"
             id="use77" />
          <use
             xlink:href="#DejaVuSans-72"
             transform="translate(514.445312 0)"
             id="use78" />
          <use
             xlink:href="#DejaVuSans-64"
             transform="translate(553.808594 0)"
             id="use79" />
          <use
             xlink:href="#DejaVuSans-20"
             transform="translate(617.285156 0)"
             id="use80" />
          <use
             xlink:href="#DejaVuSans-53"
             transform="translate(649.072266 0)"
             id="use81" />
          <use
             xlink:href="#DejaVuSans-63"
             transform="translate(712.548828 0)"
             id="use82" />
          <use
             xlink:href="#DejaVuSans-61"
             transform="translate(767.529297 0)"
             id="use83" />
          <use
             xlink:href="#DejaVuSans-6c"
             transform="translate(828.808594 0)"
             id="use84" />
          <use
             xlink:href="#DejaVuSans-61"
             transform="translate(856.591797 0)"
             id="use85" />
          <use
             xlink:href="#DejaVuSans-72"
             transform="translate(917.871094 0)"
             id="use86" />
          <use
             xlink:href="#DejaVuSans-73"
             transform="translate(958.984375 0)"
             id="use87" />
        </g>
      </g>
      <g
         id="legend_1">
        <g
           id="patch_7">
          <path
             d="M 361.055401 64.7925  L 440.646026 64.7925  Q 442.646026 64.7925 442.646026 62.7925  L 442.646026 33.88  Q 442.646026 31.88 440.646026 31.88  L 361.055401 31.88  Q 359.055401 31.88 359.055401 33.88  L 359.055401 62.7925  Q 359.055401 64.7925 361.055401 64.7925  z "
             style="fill: #ffffff; opacity: 0.8; stroke: #cccccc; stroke-linejoin: miter"
             id="path87" />
        </g>
        <g
           id="line2d_29">
          <path
             d="M 363.055401 39.978437  L 373.055401 39.978437  L 383.055401 39.978437  "
             style="fill: none; stroke: #1f77b4; stroke-width: 1.5; stroke-linecap: square"
             id="path88" />
        </g>
        <g
           id="text_17">
          <!-- train_loss -->
          <g
             transform="translate(391.055401 43.478437) scale(0.1 -0.1)"
             id="g97">
            <defs
               id="defs88">
              <path
                 id="DejaVuSans-69"
                 d="M 603 3500  L 1178 3500  L 1178 0  L 603 0  L 603 3500  z M 603 4863  L 1178 4863  L 1178 4134  L 603 4134  L 603 4863  z "
                 transform="scale(0.015625)" />
              <path
                 id="DejaVuSans-5f"
                 d="M 3263 -1063  L 3263 -1509  L -63 -1509  L -63 -1063  L 3263 -1063  z "
                 transform="scale(0.015625)" />
            </defs>
            <use
               xlink:href="#DejaVuSans-74"
               id="use88" />
            <use
               xlink:href="#DejaVuSans-72"
               transform="translate(39.208984 0)"
               id="use89" />
            <use
               xlink:href="#DejaVuSans-61"
               transform="translate(80.322266 0)"
               id="use90" />
            <use
               xlink:href="#DejaVuSans-69"
               transform="translate(141.601562 0)"
               id="use91" />
            <use
               xlink:href="#DejaVuSans-6e"
               transform="translate(169.384766 0)"
               id="use92" />
            <use
               xlink:href="#DejaVuSans-5f"
               transform="translate(232.763672 0)"
               id="use93" />
            <use
               xlink:href="#DejaVuSans-6c"
               transform="translate(282.763672 0)"
               id="use94" />
            <use
               xlink:href="#DejaVuSans-6f"
               transform="translate(310.546875 0)"
               id="use95" />
            <use
               xlink:href="#DejaVuSans-73"
               transform="translate(371.728516 0)"
               id="use96" />
            <use
               xlink:href="#DejaVuSans-73"
               transform="translate(423.828125 0)"
               id="use97" />
          </g>
        </g>
        <g
           id="line2d_30">
          <path
             d="M 363.055401 54.934687  L 373.055401 54.934687  L 383.055401 54.934687  "
             style="fill: none; stroke: #ff7f0e; stroke-width: 1.5; stroke-linecap: square"
             id="path97" />
        </g>
        <g
           id="text_18">
          <!-- val_loss -->
          <g
             transform="translate(391.055401 58.434687) scale(0.1 -0.1)"
             id="g105">
            <defs
               id="defs97">
              <path
                 id="DejaVuSans-76"
                 d="M 191 3500  L 800 3500  L 1894 563  L 2988 3500  L 3597 3500  L 2284 0  L 1503 0  L 191 3500  z "
                 transform="scale(0.015625)" />
            </defs>
            <use
               xlink:href="#DejaVuSans-76"
               id="use98" />
            <use
               xlink:href="#DejaVuSans-61"
               transform="translate(59.179688 0)"
               id="use99" />
            <use
               xlink:href="#DejaVuSans-6c"
               transform="translate(120.458984 0)"
               id="use100" />
            <use
               xlink:href="#DejaVuSans-5f"
               transform="translate(148.242188 0)"
               id="use101" />
            <use
               xlink:href="#DejaVuSans-6c"
               transform="translate(198.242188 0)"
               id="use102" />
            <use
               xlink:href="#DejaVuSans-6f"
               transform="translate(226.025391 0)"
               id="use103" />
            <use
               xlink:href="#DejaVuSans-73"
               transform="translate(287.207031 0)"
               id="use104" />
            <use
               xlink:href="#DejaVuSans-73"
               transform="translate(339.306641 0)"
               id="use105" />
          </g>
        </g>
      </g>
    </g>
  </g>
  <defs
     id="defs105">
    <clipPath
       id="pcbc1022ac8">
      <rect
         x="47.72"
         y="26.88"
         width="399.926026"
         height="276.76"
         id="rect105" />
    </clipPath>
  </defs>
</svg>
